<?xml version="1.0" encoding="UTF-8" standalone="no"?>
<!-- Created with Inkscape (http://www.inkscape.org/) -->

<svg
   xmlns:dc="http://purl.org/dc/elements/1.1/"
   xmlns:cc="http://creativecommons.org/ns#"
   xmlns:rdf="http://www.w3.org/1999/02/22-rdf-syntax-ns#"
   xmlns:svg="http://www.w3.org/2000/svg"
   xmlns="http://www.w3.org/2000/svg"
   xmlns:xlink="http://www.w3.org/1999/xlink"
   xmlns:sodipodi="http://sodipodi.sourceforge.net/DTD/sodipodi-0.dtd"
   xmlns:inkscape="http://www.inkscape.org/namespaces/inkscape"
   version="1.0"
   width="96"
   height="96"
   id="svg2408"
   inkscape:version="0.48.3.1 r9886"
   sodipodi:docname="menu-editor.svg">
  <sodipodi:namedview
     pagecolor="#ffffff"
     bordercolor="#666666"
     borderopacity="1"
     objecttolerance="10"
     gridtolerance="10"
     guidetolerance="10"
     inkscape:pageopacity="0"
     inkscape:pageshadow="2"
     inkscape:window-width="1280"
     inkscape:window-height="752"
     id="namedview128"
     showgrid="false"
     inkscape:zoom="2"
     inkscape:cx="-42.761294"
     inkscape:cy="66.879971"
     inkscape:window-x="0"
     inkscape:window-y="0"
     inkscape:window-maximized="1"
     inkscape:current-layer="svg2408"
     showguides="true"
     inkscape:guide-bbox="true" />
  <defs
     id="defs2410">
    <linearGradient
       x1="45.447727"
       y1="92.539597"
       x2="45.447727"
       y2="7.0165396"
       id="ButtonShadow"
       gradientUnits="userSpaceOnUse"
       gradientTransform="scale(1.0058652,0.994169)">
      <stop
         id="stop3750"
         style="stop-color:#000000;stop-opacity:1"
         offset="0" />
      <stop
         id="stop3752"
         style="stop-color:#000000;stop-opacity:0.58823532"
         offset="1" />
    </linearGradient>
    <filter
       color-interpolation-filters="sRGB"
       id="filter3174">
      <feGaussianBlur
         id="feGaussianBlur3176"
         stdDeviation="1.71" />
    </filter>
    <clipPath
       id="clipPath3613">
      <rect
         style="fill:#ffffff;fill-opacity:1;fill-rule:nonzero;stroke:none"
         id="rect3615"
         y="6"
         x="6"
         ry="6"
         rx="6"
         height="84"
         width="84" />
    </clipPath>
    <filter
       id="filter3794-3"
       color-interpolation-filters="sRGB"
       height="1.3839999"
       width="1.3839999"
       y="-0.192"
       x="-0.192">
      <feGaussianBlur
         stdDeviation="5.28"
         id="feGaussianBlur3796-2" />
    </filter>
    <filter
       id="filter3174-4"
       color-interpolation-filters="sRGB">
      <feGaussianBlur
         stdDeviation="1.71"
         id="feGaussianBlur3176-2" />
    </filter>
    <linearGradient
       id="linearGradient3737-3">
      <stop
         offset="0"
         style="stop-color:#ffffff;stop-opacity:1"
         id="stop3739-9" />
      <stop
         offset="1"
         style="stop-color:#ffffff;stop-opacity:0"
         id="stop3741-55" />
    </linearGradient>
    <linearGradient
       gradientTransform="scale(1.0058652,0.994169)"
       gradientUnits="userSpaceOnUse"
       id="ButtonShadow-3"
       y2="7.0165396"
       x2="45.447727"
       y1="92.539597"
       x1="45.447727">
      <stop
         offset="0"
         style="stop-color:#000000;stop-opacity:1"
         id="stop3750-4" />
      <stop
         offset="1"
         style="stop-color:#000000;stop-opacity:0.58823532"
         id="stop3752-7" />
    </linearGradient>
    <linearGradient
       inkscape:collect="always"
       xlink:href="#linearGradient3737-3"
       id="linearGradient4587"
       gradientUnits="userSpaceOnUse"
       x1="48"
       y1="20.220806"
       x2="48"
       y2="138.66119" />
    <linearGradient
       inkscape:collect="always"
       xlink:href="#ButtonShadow-3"
       id="linearGradient4594"
       gradientUnits="userSpaceOnUse"
       gradientTransform="matrix(1.0058652,0,0,0.994169,97.5,0)"
       x1="45.447727"
       y1="92.539597"
       x2="45.447727"
       y2="7.0165396" />
  </defs>
  <metadata
     id="metadata2413">
    <rdf:RDF>
      <cc:Work
         rdf:about="">
        <dc:format>image/svg+xml</dc:format>
        <dc:type
           rdf:resource="http://purl.org/dc/dcmitype/StillImage" />
        <dc:title />
      </cc:Work>
    </rdf:RDF>
  </metadata>
  <g
     id="layer2"
     style="display:none">
    <path
       d="M 11,7 C 7.676,7 5,9.676 5,13 l 0,33.6875 c 2.2377507,0.124029 4.660506,0.235683 5.875,0.4375 0.66093,0.10983 -0.08406,0.240848 -1.125,0.34375 C 8.7090622,47.571654 7.3545491,47.665119 6.84375,47.75 6.2216014,47.853382 5.6264179,47.903999 5,48 l 0,1.0625 c 0.3803657,0.03607 0.7183843,0.03125 0.9375,0.03125 0.80883,10e-7 1.1599727,0.215701 1.3125,0.5625 0.1525272,0.346797 0.09375,0.839723 0.09375,1.40625 0,0.424828 -0.9420178,0.663014 -1.15625,1.375 C 6.110939,52.691968 5.5510552,52.945524 5,53.1875 l 0,2.21875 c 0.7355867,0.02497 1.4332639,0.05671 1.84375,0.3125 C 7.1254716,55.894306 6.0687957,56.124098 5,56.3125 l 0,7.5625 c 1.1379643,0.180337 3.3100715,0.925679 3.96875,1.0625 1.090152,0.226446 1.224723,0.33476 0.875,0.4375 -0.3497231,0.102744 -1.173581,0.175172 -2,0.3125 C 6.8656638,65.850029 5.90816,66.141998 5,66.34375 L 5,86 c 0,3.324 2.676,6 6,6 l 13,0 c 0.0954,-0.438237 0.150955,-0.931178 0.25,-1.4375 0.140364,-0.717512 0.25498,-1.34159 0.375,-1.59375 0.03001,-0.06304 0.05815,-0.114053 0.09375,-0.125 0.106804,-0.03285 0.238198,0.191956 0.46875,0.78125 0.304338,0.777871 0.540174,1.646782 0.6875,2.375 l 0.75,0 c 0.276152,-0.493694 0.578538,-1.138496 0.8125,-1.4375 0.09907,-0.126629 0.275237,0.131501 0.53125,0.375 0.256014,0.2435 0.588904,0.486378 0.9375,0.375 0.648614,-0.207227 1.602807,-0.726227 2.03125,-1 0.139883,-0.08938 0.300164,-0.157976 0.40625,-0.1875 0.106087,-0.02952 0.174331,-0.01774 0.25,0 0.151339,0.03548 0.232196,0.144559 0.34375,0.28125 0.223098,0.27338 0.466785,0.656251 1.0625,0.65625 0.478344,0 0.657185,-0.0325 0.78125,0.0625 0.124065,0.095 0.197087,0.314551 0.40625,0.875 l 8.875,0 c -0.04778,-0.593879 1.040547,-2.151517 1.21875,-3.0625 0.19092,-0.975995 0.214078,-1.242419 0.28125,-1.0625 0.06717,0.179919 0.192504,0.793906 0.46875,1.5 0.110448,0.282298 0.213887,0.358235 0.3125,0.28125 0.09861,-0.07699 0.168895,-0.293948 0.25,-0.5625 0.162213,-0.537107 0.285649,-1.296709 0.34375,-1.59375 0.131129,-0.670335 0.128655,-1.786501 0.125,-2.28125 -9.11e-4,-0.123687 -0.0059,-0.217815 0,-0.25 0.01779,-0.09656 0.08067,0.312079 0.28125,1.59375 0.163819,1.046767 0.54767,2.687946 0.71875,3.5625 0.169798,0.867992 0.298106,1.322124 0.40625,1.875 l 28.21875,0 c 0.03877,-0.494956 0.03519,-1.098589 0.0625,-1.5 0.02049,-0.301057 0.06649,-0.487005 0.15625,-0.46875 0.02992,0.0061 0.05077,0.03882 0.09375,0.09375 0.233449,0.298339 0.630596,1.164908 0.96875,1.875 L 85,92 c 3.324,0 6,-2.676 6,-6 l 0,-7.21875 c -0.16942,0.0045 -0.290112,-4e-6 -0.5,0 -1.330307,0 -2.638456,-4e-6 -3.96875,0 -1.226564,0 -2.05394,-9.64e-4 -2.25,-0.0625 -0.19606,-0.06154 0.232972,-0.183183 1.46875,-0.5 C 86.405034,78.050819 89.092469,77.290673 91,76.875 L 91,38.46875 C 90.34725,38.202412 89.792969,37.980093 89.25,37.5625 89.107486,37.452886 88.801155,37.170028 88.28125,37 87.761349,36.829972 87.007124,36.743855 86,36.9375 c -1.533473,0.294852 -1.685602,0.283469 -1.25,0.15625 0.4356,-0.127221 1.468635,-0.381012 2.25,-0.53125 1.152717,-0.221645 2.722214,-1.204246 4,-1.84375 l 0,-4.5625 c -0.69831,-0.257978 -1.422206,-0.558272 -1.75,-1.0625 -0.209707,-0.322576 -0.321618,-0.513018 -0.3125,-0.625 0.0091,-0.111981 0.13299,-0.149124 0.25,-0.1875 0.117011,-0.03837 0.261032,-0.05449 0.375,-0.15625 0.11397,-0.101759 0.187497,-0.291619 0.1875,-0.59375 0,-0.32292 0.08246,-0.887065 0.0625,-1.40625 -0.01,-0.259593 -0.03562,-0.49724 -0.125,-0.6875 -0.08939,-0.19026 -0.219089,-0.333004 -0.4375,-0.375 -0.574572,-0.110478 -0.848143,-0.233682 -0.90625,-0.34375 -0.05811,-0.110067 0.07208,-0.18937 0.28125,-0.28125 0.418339,-0.18376 1.132532,-0.339398 1.125,-0.34375 -0.668701,-0.385725 -5.247169,-0.921226 -5,-0.96875 0.332574,-0.06395 0.667437,-0.123553 1,-0.1875 1.047644,-0.201439 2.43278,-0.309227 3.75,-0.5625 0.573261,-0.110227 0.911769,-0.250569 1.125,-0.4375 0.213229,-0.18693 0.294201,-0.423258 0.375,-0.625 L 91,13 C 91,9.676 88.324,7 85,7 L 33.625,7 C 33.72158,8.3975706 33.82658,9.959362 33.53125,9.1875 33.320827,8.6375466 33.210422,8.0499534 33,7.5 32.946762,7.3608606 32.903941,7.1705291 32.84375,7 L 30.8125,7 C 30.571803,7.4923127 30.362863,7.9708281 30.03125,8.1875 29.524321,8.5187294 29.245447,8.6821159 29,8.59375 28.754552,8.5053839 28.523162,8.1669814 28.15625,7.6875 27.992502,7.4735174 27.721718,7.2560338 27.40625,7 l -6.8125,0 -1.3125,5.5625 L 17.53125,7 17.3125,7 15.5625,15.9375 14.15625,7 11,7 z"
       inkscape:connector-curvature="0"
       id="rect3745"
       style="opacity:0.9;fill:url(#ButtonShadow);fill-opacity:1;fill-rule:nonzero;stroke:none;filter:url(#filter3174)" />
  </g>
  <rect
     y="0"
     x="0"
     height="96"
     width="96"
     id="rect6228"
     style="fill:#ececec;fill-opacity:1;stroke:none" />
  <rect
     y="0"
     x="0"
     height="2.5"
     width="96"
     id="rect3880"
     style="opacity:0.58371041;fill:#ffffff;fill-opacity:1;stroke:none" />
  <rect
     style="opacity:0.38914029000000000;fill:#999999;fill-opacity:1;stroke:none"
     id="rect3878"
     width="96"
     height="2.5"
     x="0"
     y="93.5" />
  <rect
     style="opacity:0.9;fill:url(#linearGradient4594);fill-opacity:1;fill-rule:nonzero;stroke:none;display:none;filter:url(#filter3174-4)"
     id="rect3745-4"
     y="7"
     x="102.5"
     ry="6"
     rx="6"
     height="85"
     width="86" />
  <rect
     style="opacity:0.1;fill:url(#linearGradient4587);fill-opacity:1;fill-rule:nonzero;stroke:#ffffff;stroke-width:0.5;stroke-linecap:round;stroke-linejoin:miter;stroke-miterlimit:4;stroke-opacity:1;stroke-dasharray:none;stroke-dashoffset:0;display:none;filter:url(#filter3794-3)"
     id="rect3171"
     clip-path="url(#clipPath3613)"
     y="15"
     x="15"
     ry="12"
     rx="12"
     height="66"
     width="66"
     transform="translate(97.5,0)" />
  <g
     id="g4788"
     transform="matrix(0.94658387,0,0,0.94658387,2.5639749,4.8416923)">
    <rect
       y="16.71875"
       x="19.25"
       height="9.75"
       width="57.5"
       id="rect4922"
       style="fill:#87aade;fill-opacity:1;stroke:none" />
    <rect
       style="fill:#87aade;fill-opacity:1;stroke:none"
       id="rect3969"
       width="57.5"
       height="9.75"
       x="19.25"
       y="32.71875" />
    <rect
       y="48.71875"
       x="19.25"
       height="9.75"
       width="57.5"
       id="rect3971"
       style="fill:#87aade;fill-opacity:1;stroke:none" />
    <rect
       style="fill:#87aade;fill-opacity:1;stroke:none"
       id="rect3973"
       width="57.5"
       height="9.75"
       x="19.25"
       y="64.71875" />
    <rect
       style="fill:#5f8dd3;fill-opacity:1;stroke:none"
       id="rect3975"
       width="57.5"
       height="3"
       x="19.25"
       y="16.71875" />
    <rect
       y="32.71875"
       x="19.25"
       height="3"
       width="57.5"
       id="rect3977"
       style="fill:#5f8dd3;fill-opacity:1;stroke:none" />
    <rect
       style="fill:#5f8dd3;fill-opacity:1;stroke:none"
       id="rect3979"
       width="57.5"
       height="3"
       x="19.25"
       y="48.71875" />
    <rect
       y="64.71875"
       x="19.25"
       height="3"
       width="57.5"
       id="rect3981"
       style="fill:#5f8dd3;fill-opacity:1;stroke:none" />
  </g>
  <g
     transform="matrix(0.97477534,0,0,0.97477534,-369.32,-215.09082)"
     id="g4720">
    <path
       style="opacity:0.17299577;fill:#000000;fill-opacity:1;stroke:none"
       d="m 466.20518,283.39064 c -1.80601,-0.71935 -3.88951,-0.90169 -5.93383,-0.54922 l -2.87577,1.79132 -24.91147,15.57377 -0.49782,0.29611 -4.79275,9.28671 -0.0245,-0.009 -2.15691,4.19766 16.28311,-1.24319 0.74701,-0.47082 0.087,-0.0478 24.84905,-15.51677 1.718,-1.07222 1.44419,-0.90668 c 1.70491,-2.77158 1.68083,-6.13471 -0.37249,-8.72122 -0.1398,-0.1761 -0.2748,-0.34422 -0.42811,-0.50681 -0.0431,-0.0457 -0.0907,-0.0857 -0.13485,-0.13033 -0.26966,-0.2727 -0.55404,-0.51494 -0.85882,-0.74721 -0.14812,-0.11343 -0.28724,-0.22143 -0.44227,-0.32491 -0.52998,-0.35386 -1.09671,-0.65938 -1.69871,-0.89917 z"
       id="path6658"
       inkscape:connector-curvature="0"
       inkscape:transform-center-x="-23.769601"
       inkscape:transform-center-y="-15.435109" />
    <rect
       y="9.0566006"
       x="528.20813"
       height="33.50238"
       width="6.6255946"
       id="rect6660"
       style="fill:#000000;fill-opacity:1;stroke:none"
       transform="matrix(0.8660254,0.5,-0.5,0.8660254,0,0)" />
    <rect
       style="fill:#333333;fill-opacity:1;stroke:none"
       id="rect6662"
       width="6.6255946"
       height="33.50238"
       x="521.58252"
       y="9.0566006"
       transform="matrix(0.8660254,0.5,-0.5,0.8660254,0,0)" />
    <rect
       y="9.0566006"
       x="514.95691"
       height="33.50238"
       width="6.6255946"
       id="rect6664"
       style="fill:#808080;fill-opacity:1;stroke:none"
       transform="matrix(0.8660254,0.5,-0.5,0.8660254,0,0)" />
    <path
       id="path6666"
       d="m 455.21066,261.5371 c -3.82003,-2.2055 -8.40234,-1.88813 -11.82794,0.42409 l -1.9375,3.35585 17.21225,9.9375 2.125,-3.68061 c 0.12847,-3.98047 -1.88169,-7.90634 -5.57181,-10.03683 z"
       style="fill:#ff0000;fill-opacity:1;stroke:none"
       inkscape:connector-curvature="0" />
    <path
       id="path6668"
       d="m 442.60147,263.31436 -1.15625,2.00268 17.21225,9.9375 1.15625,-2.00268 -17.21225,-9.9375 z"
       style="fill:#e3e2db;fill-opacity:1;stroke:none"
       inkscape:connector-curvature="0" />
    <path
       sodipodi:nodetypes="cccccc"
       inkscape:connector-curvature="0"
       style="fill:#ffeeaa;fill-opacity:1;stroke:none"
       d="m 425.10129,313.68806 -0.73419,-18.79084 0.375,-0.64952 17.21225,9.9375 -0.5625,0.97428 z"
       id="path6670" />
    <rect
       transform="matrix(-0.8660254,-0.5,-0.5,0.8660254,0,0)"
       y="9.0566006"
       x="-521.58252"
       height="33.50238"
       width="1.9994054"
       id="rect6672"
       style="fill:#cccccc;fill-opacity:1;stroke:none" />
    <path
       id="path6674"
       d="m 436.13574,300.82583 -0.5625,0.97428 -10.47195,11.88795 16.29056,-8.52858 0.5625,-0.97428 -5.81861,-3.35937 z"
       style="fill:#ffe680;fill-opacity:0.97647059;stroke:none"
       inkscape:connector-curvature="0" />
    <path
       id="path6676"
       d="m 424.86371,307.84956 0.23758,5.8385 5.17507,-2.7135 -5.41265,-3.125 z"
       style="fill:#2b0000;fill-opacity:0.97647059;stroke:none"
       inkscape:connector-curvature="0" />
    <path
       id="path6678"
       d="m 455.21066,261.5371 c -0.99527,-0.57462 -2.05389,-0.98179 -3.11871,-1.22324 1.99956,2.16888 3.04671,5.04744 2.9531,7.94757 l -2.125,3.68061 5.73742,3.3125 2.125,-3.68061 c 0.12847,-3.98047 -1.88169,-7.90634 -5.57181,-10.03683 z"
       style="fill:#d40000;fill-opacity:1;stroke:none"
       inkscape:connector-curvature="0" />
    <path
       id="path6680"
       d="m 454.0763,269.93936 -1.15625,2.00268 5.73742,3.3125 1.15625,-2.00268 -5.73742,-3.3125 z"
       style="fill:#c8b7c4;fill-opacity:1;stroke:none"
       inkscape:connector-curvature="0" />
  </g>
</svg>
